<mxfile host="app.diagrams.net" modified="2024-06-20T08:36:41.610Z" agent="Mozilla/5.0 (Windows NT 10.0; Win64; x64) AppleWebKit/537.36 (KHTML, like Gecko) Chrome/126.0.0.0 Safari/537.36 Edg/126.0.0.0" version="24.5.5" etag="dJlTL2RyYto0ubXl3Bkg" type="github">
  <diagram name="Page-1" id="TKmhAAOQ8eYD7aJAp0wY">
    <mxGraphModel>
      <root>
        <mxCell id="0" />
        <mxCell id="1" parent="0" />
      </root>
    </mxGraphModel>
  </diagram>
</mxfile>
